PathFileType	4	(X/Y/Z)	C:/Users/beibeiliu/ov580/test_trc/User3\sequence.48_training_dense_left.trc
DataRate	CameraRate	NumFrames	NumMarkers	Units	OrigDataRate	OrigDataStartFrame	OrigNumFrames
120	120	23	19	mm	120	81	188
Frame#	Time	ThumbCMC			ThumbMCP			ThumbIP			ThumbTip			IndexMCP			IndexPIP			IndexTip			MiddleMCP			MiddlePIP			MiddleTip			RingMCP			RingPIP			RingTip			PinkyMCP			PinkyPIP			PinkyTip			BackHand1			BackHand2			BackHand3	
		X0	Y0	Z0	X1	Y1	Z1	X2	Y2	Z2	X3	Y3	Z3	X4	Y4	Z4	X5	Y5	Z5	X6	Y6	Z6	X7	Y7	Z7	X8	Y8	Z8	X9	Y9	Z9	X10	Y10	Z10	X11	Y11	Z11	X12	Y12	Z12	X13	Y13	Z13	X14	Y14	Z14	X15	Y15	Z15	X16	Y16	Z16	X17	Y17	Z17	X18	Y18	Z18	
80	0.666667	-168.326	-26.7593	70.6226	-162.341	-1.80723	49.1233	-148.501	9.05073	22.8915	-129.636	13.5243	8.50646	-162.397	-49.7917	-4.93237	-151.798	-32.2308	-30.3569	-137.127	-5.89298	-31.7291	-143.455	-66.7188	-5.13628	-130.851	-51.9341	-32.9479	-112.432	-21.9974	-33.9556	-124.191	-65.9271	6.23752	-107.56	-48.1173	-11.6475	-96.4779	-18.0904	3.59661	-99.2662	-63.1428	22.048	-92.9277	-39.4896	19.2514	-92.7263	-20.1418	41.9523	-137.582	-85.6542	53.7189	-145.069	-82.0874	85.6435	-169.044	-65.7859	66.3355	
81	0.675	-152.961	-5.7926	70.002	-134.63	8.58935	45.0848	-120.756	17.3436	20.0361	-103.295	15.4656	3.56289	-161.68	-30.26	-3.49919	-151.011	-23.291	-31.4097	-125.621	-9.47242	-44.3656	-156.848	-51.3475	-7.91671	-146.377	-44.5652	-37.9099	-114.845	-34.3833	-52.0642	-134.97	-66.5606	2.58426	-115.91	-61.9444	-20.2005	-88.8011	-37.7002	-18.0301	-112.975	-70.2155	15.3688	-93.0751	-55.8229	8.95825	-80.8439	-36.8434	30.6802	-151.044	-74.9041	53.4782	-152.015	-74.0934	82.3228	-169.172	-44.4521	64.1186	
82	0.683333	-118.162	4.30318	71.1654	-97.11	3.66573	48.759	-80.3795	5.15096	19.2912	-71.7741	-3.52565	-0.563819	-147.168	5.94589	0.08562	-137.89	11.2747	-27.0483	-119.383	6.85297	-48.4223	-160.529	-18.0393	-1.24052	-156.255	-15.3348	-37.3737	-136.201	-21.3561	-63.667	-150.979	-43.1513	-0.276977	-136.254	-50.9643	-24.612	-104.407	-49.9453	-32.2794	-136.099	-64.9517	15.4982	-108.784	-66.8335	4.99956	-89.2502	-57.3268	24.1271	-163.841	-40.685	50.4749	-162.633	-43.0511	82.5986	-157.826	-12.2321	69.5689	
83	0.691667	-93.1032	-3.63226	76.101	-72.815	-11.5435	47.4342	-64.4448	-18.3067	19.722	-60.3171	-29.0235	-3.3166	-118.876	26.8028	10.2795	-111.696	33.4298	-18.8263	-99.7204	29.2727	-43.0439	-150.769	14.4082	4.21378	-151.742	17.4677	-26.0615	-143.082	9.19489	-56.2898	-151.309	-13.6524	5.2837	-144.539	-26.5655	-21.7989	-119.609	-48.5189	-29.8897	-149.585	-43.5707	16.1752	-128.145	-59.2772	8.3426	-104.499	-58.3154	28.156	-158.62	-12.1961	56.5304	-156.834	-18.9906	87.7522	-133.109	9.13562	73.9964	
84	0.7	-82.4143	-6.45236	72.5333	-67.1789	-20.4032	44.6593	-57.5866	-29.5703	17.2796	-64.8359	-42.2994	-3.59646	-105.192	31.29	14.8435	-97.7362	37.8427	-18.3555	-86.4308	32.2576	-39.6739	-135.993	27.7923	8.29748	-142.193	30.7705	-20.297	-133.725	15.3129	-53.3355	-147.681	-0.851651	6.90905	-139.432	-18.2765	-19.8601	-121.071	-44.7435	-18.6549	-148.895	-27.3956	16.2377	-134.924	-50.802	11.7257	-114.312	-56.6672	31.5936	-152.206	3.89174	60.5499	-146.895	-5.48369	93.233	-117.88	15.2756	76.5741	
85	0.708333	-81.1171	-13.7964	74.5961	-71.4026	-27.8248	44.8469	-66.814	-39.0244	18.6565	-74.7847	-50.3734	-4.03757	-101.05	25.4682	10.1361	-93.4602	28.5682	-17.0618	-84.653	13.0919	-42.2497	-129.464	24.8553	8.10274	-131.119	23.1989	-27.3081	-125.326	-1.84992	-49.1722	-146.437	-0.785454	5.9261	-137.664	-20.3182	-17.7897	-125.764	-51.2073	-6.11702	-154.277	-27.6643	14.9886	-140.154	-49.0079	12.3344	-123.25	-60.0197	39.1919	-148.354	5.29907	62.1179	-144.205	0.775104	89.4508	-112.479	12.4858	78.0557	
86	0.716667	-87.9524	-21.4508	75.9739	-73.2778	-38.3641	48.4011	-65.3301	-52.0209	24.5614	-78.4759	-64.3687	-1.55959	-100.902	7.96318	5.47874	-87.6035	4.52958	-25.6091	-83.2689	-21.0624	-43.9954	-129.222	8.73539	1.06809	-125.115	2.47625	-31.2343	-121.137	-34.7772	-48.9539	-143.128	-12.7108	1.92645	-139.984	-39.6724	-17.0178	-131.08	-63.8522	-2.94369	-155.666	-31.8271	14.7195	-142.591	-56.9548	12.16	-133.906	-67.201	37.726	-149.58	0.283182	57.8984	-147.411	1.11677	83.9782	-114.049	8.30972	72.1849	
87	0.725	-93.7504	-25.1908	78.4452	-73.217	-44.7845	58.6827	-65.0066	-60.6308	37.0707	-63.5062	-78.9452	17.3305	-97.6424	-12.0912	-1.19739	-85.0183	-23.7409	-26.1958	-76.6702	-52.1977	-37.6133	-121.31	-11.919	-9.61051	-113.874	-26.4215	-37.4435	-108.971	-60.4951	-46.333	-143.91	-33.1211	-3.52006	-135.17	-59.9053	-17.8079	-127.084	-85.8896	2.55939	-156.278	-48.2092	11.5854	-146.24	-76.2033	14.4366	-137.466	-80.1053	40.6217	-154.713	-6.82845	46.0839	-158.097	-3.92794	77.5049	-122.158	1.52754	64.4294	
88	0.733333	-98.8932	-22.6463	82.7743	-75.4054	-40.988	76.6099	-50.6603	-59.7385	64.6652	-47.9136	-82.5873	50.9034	-91.3482	-33.2902	7.41014	-68.0516	-50.3748	-13.3246	-59.1977	-74.3503	-18.2109	-114.229	-40.5994	-9.22734	-99.8471	-60.2328	-29.753	-85.839	-89.2482	-32.6757	-133.65	-60.8422	3.64823	-119.406	-87.4326	-2.94152	-113.087	-108.661	21.375	-146.15	-72.6893	17.8105	-134.344	-95.171	27.2774	-130.385	-96.5188	56.2884	-153.541	-22.3718	40.5799	-165.286	-13.4783	65.1066	-125.472	-8.01966	56.0546	
89	0.741667	-101.185	-18.2953	92.1367	-74.6965	-33.4528	95.086	-48.8586	-49.6134	93.8767	-34.9746	-67.2966	93.4174	-76.7985	-45.0761	24.185	-50.438	-62.7079	13.6083	-31.845	-84.7887	20.0161	-95.1417	-59.608	8.32472	-72.7451	-79.5551	-2.85067	-57.151	-109.169	3.57823	-109.861	-78.8438	22.8095	-95.1061	-105.962	27.7443	-87.6071	-114.937	57.6981	-130.858	-90.2952	38.6767	-113.581	-106.548	56.202	-109.988	-95.6517	83.9581	-147.54	-40.3562	44.0174	-164.623	-25.6035	63.8877	-124.559	-13.2711	58.6865	
90	0.75	-100.821	-6.16896	103.922	-74.0835	-23.3478	111.692	-42.9486	-33.5991	118.856	-28.1573	-51.9195	120.288	-64.0168	-44.9237	45.7599	-35.124	-58.7123	44.332	-16.4947	-77.621	64.8419	-76.3242	-62.9688	37.0623	-50.0407	-82.3584	33.5693	-29.8301	-105.269	58.4791	-89.0786	-79.9604	50.3833	-68.0189	-102.527	64.4968	-67.6234	-103.037	100.837	-105.247	-96.8766	66.5868	-89.4347	-102.035	85.1675	-90.627	-88.1155	110.097	-131.193	-45.7223	57.8118	-154.81	-36.4516	70.6281	-120.429	-12.549	66.1938	
91	0.758333	-102.285	13.0773	106.335	-71.5708	7.54665	120.06	-43.6879	1.19508	128.818	-26.135	-14.1932	133.864	-47.5145	-24.4235	60.0526	-21.5799	-34.0593	68.4427	-7.49476	-38.1498	95.7487	-57.4366	-43.7264	55.975	-23.4152	-56.7487	66.571	-12.4717	-62.815	100.34	-62.5445	-64.6611	71.089	-44.6765	-74.5123	91.3875	-47.9524	-66.5802	123.73	-83.2026	-75.1988	86.9005	-65.3157	-77.2348	110.726	-72.9173	-59.3161	134.421	-118.096	-41.8239	68.1819	-143.694	-34.1118	78.1711	-116.474	-8.20042	72.1054	
92	0.766667	-108.405	40.9208	110.175	-79.0333	45.9508	122.498	-45.9959	50.1791	129.838	-26.8737	34.9992	135.921	-45.5163	17.2777	69.5699	-12.9459	20.0247	81.1515	-7.58205	22.4764	109.088	-41.5851	-5.84841	67.7792	-11.0048	-3.5776	83.3029	-8.78283	4.54509	122.207	-44.2039	-22.8908	84.7714	-24.0793	-19.9058	108.992	-34.1244	-8.36387	135.317	-55.5145	-37.1523	99.9568	-41.5146	-28.0047	122.659	-60.1829	-11.1605	142.213	-102.609	-22.4241	79.5371	-132.833	-17.8427	89.2521	-115.943	10.322	80.5117	
93	0.775	-120.992	68.9969	107.872	-94.4847	91.2326	115.575	-70.5547	102.431	122.407	-43.9129	97.7676	128.913	-57.594	73.1073	63.2867	-27.8789	87.7446	73.004	-27.8685	91.4531	107.917	-39.4496	53.0109	64.3502	-14.851	64.2694	79.6791	-22.5739	66.9493	118.324	-35.4176	34.6805	85.0633	-22.4978	44.7626	107.329	-44.7192	52.7597	133.48	-43.5527	21.3179	98.5357	-36.6757	34.2862	123.324	-64.2188	36.7977	138.772	-93.4578	15.7759	77.1288	-119.405	8.12763	90.6867	-117.101	39.8013	78.4849	
94	0.783333	-144.638	78.745	89.4153	-135.301	115.012	90.4543	-111.822	137.865	88.6513	-86.9824	133.917	93.2433	-91.4436	103.732	34.0851	-69.1201	125.206	38.2955	-69.74	131.017	69.8532	-69.1826	89.4446	35.4183	-48.7664	112.773	48.3022	-56.2375	111.537	87.9003	-56.9014	77.9231	60.868	-48.2738	95.7648	82.0163	-71.5742	89.3273	110.099	-56.7881	65.2775	78.4116	-52.8541	76.8909	102.587	-80.8196	71.8812	119.871	-102.129	38.4901	64.3909	-120.897	20.7875	79.4887	-130.475	50.8036	65.3959	
95	0.791667	-170.244	60.4233	62.0856	-176.473	92.4476	52.7659	-163.312	118.644	38.1865	-141.72	133.148	38.5471	-132.378	80.7623	-7.61046	-120.509	110.042	-13.8173	-118.853	124.047	17.2472	-104.073	76.7078	-3.26629	-95.6387	106.731	-4.71958	-99.6529	117.38	35.7084	-88.7545	81.3287	23.3377	-86.1025	104.451	37.8494	-102.711	100.989	66.9648	-80.6165	72.453	43.9238	-88.8702	94.9566	65.5891	-108.998	86.7775	82.9682	-112.663	30.075	39.4763	-127.075	15.857	65.8777	-152.053	34.1879	42.1276	
96	0.8	-184.922	30.8227	45.2812	-194.281	55.8715	27.7069	-197.967	82.2068	6.68946	-177.141	96.8612	-1.3136	-160.116	33.0884	-27.6702	-160.509	57.5993	-51.7017	-155.248	87.0738	-33.8401	-131.062	38.4318	-26.4044	-125.516	70.1568	-39.4083	-131.251	92.2187	-9.96063	-116.944	53.4452	-10.1404	-116.659	83.7589	-1.72851	-127.934	86.8127	28.5009	-104.676	56.5815	10.3107	-112.684	79.7294	23.4017	-125.244	81.7611	47.8261	-123.736	6.67798	24.5801	-128.687	-5.64828	51.9124	-163.428	4.32322	34.1265	
97	0.808333	-187.769	0.0991492	43.1012	-202.166	20.5123	22.4606	-208.003	37.8127	0.326476	-197.285	56.0973	-21.2588	-172.621	-14.3279	-27.9366	-176.612	-0.191193	-62.7454	-176.702	32.7668	-64.5195	-140.678	-4.40702	-35.0994	-142.483	23.296	-57.5656	-149.274	54.4289	-37.6081	-127.404	12.5002	-25.0126	-125.544	42.929	-29.3607	-136.698	62.5015	-4.93737	-113.089	21.9206	-7.05582	-121.822	49.0245	-6.77727	-133.972	66.6016	11.6321	-131.28	-24.0453	20.0796	-129.556	-27.3542	54.3297	-162.447	-26.5207	31.0348	
98	0.816667	-190.27	-24.1923	47.1786	-206.888	-6.51281	25.3378	-215.767	6.04273	-3.45064	-206.873	19.0691	-22.6591	-173.375	-46.8032	-23.6663	-181.953	-42.5331	-58.0921	-186.127	-18.2927	-74.0316	-145.64	-39.4261	-33.8219	-148.642	-23.8802	-61.3799	-154.952	17.7556	-58.5583	-129.582	-22.1024	-28.1461	-128.789	0.999292	-44.4399	-139.736	30.1276	-38.3105	-116.124	-7.09651	-12.427	-123.079	16.6751	-22.2909	-133.397	42.7678	-18.7641	-129.299	-45.5063	22.6291	-125.608	-44.8705	56.5467	-163.332	-49.2501	41.0027	
99	0.825	-185.378	-40.7225	48.8496	-205.466	-27.4711	26.6859	-218.507	-16.7492	3.65329	-213.748	-3.92093	-18.9814	-174.813	-69.4045	-20.1956	-184.299	-70.6209	-47.8543	-192.773	-50.3592	-71.5569	-146.263	-63.9853	-26.6608	-151.25	-55.0683	-60.4205	-159.448	-21.6731	-77.3724	-130.788	-44.4992	-27.5264	-135.399	-29.4105	-49.6626	-144.928	-1.89432	-58.8819	-119.055	-27.9033	-11.4486	-123.481	-6.89014	-26.3816	-133.895	15.3391	-32.0554	-125.255	-60.8115	28.4159	-123.772	-57.2852	57.1412	-156.444	-66.7924	47.4086	
100	0.833333	-181.632	-51.184	59.4053	-205.097	-39.005	32.3246	-214.525	-28.3589	8.26323	-211.048	-15.8209	-15.7876	-176.188	-82.7217	-12.034	-185.901	-85.032	-39.5411	-196.251	-70.4084	-67.0958	-145.993	-80.5255	-25.1327	-150.581	-79.0693	-52.8887	-161.342	-59.7818	-83.3743	-133.066	-59.7649	-20.6374	-138	-48.4928	-46.2631	-146.008	-22.9727	-65.1774	-117.968	-36.0971	-11.107	-128.293	-20.3719	-25.8591	-138.994	2.10358	-32.9727	-123.13	-70.4075	31.1002	-121.293	-65.3755	64.2324	-155.685	-76.5397	51.2199	
101	0.841667	-180.627	-60.5663	60.03	-195.116	-43.1731	37.9046	-200.263	-30.2152	10.7214	-193.098	-17.5139	-10.3233	-176.072	-91.258	-6.59169	-187.989	-92.7954	-31.7196	-197.707	-79.8227	-61.1873	-147.076	-86.9136	-15.5945	-151.036	-86.7179	-49.2695	-157.248	-77.0096	-77.2722	-133.576	-66.4073	-16.7888	-137.698	-50.3541	-43.0349	-147.601	-28.8742	-57.1684	-118.452	-43.6902	-5.7593	-130.442	-27.169	-18.1121	-144.293	-0.750391	-18.8506	-121.141	-79.475	36.856	-116.167	-73.5499	64.0378	-152.496	-88.7649	53.72	
102	0.85	-175.784	-57.7519	64.1521	-185.125	-35.0705	36.3129	-180.003	-20.5014	12.0286	-163.23	-11.3298	-6.80786	-178.888	-90.6473	-4.40606	-190.008	-87.4781	-29.6405	-195.221	-73.6568	-52.6032	-146.342	-91.0467	-13.7149	-156.52	-90.8217	-41.8986	-159.87	-78.2429	-72.3841	-128.24	-70.4376	-11.1422	-135.445	-53.9964	-36.6264	-139.827	-26.0737	-46.5482	-114.875	-53.287	1.22291	-125.666	-29.7408	-11.6214	-134.314	-3.8987	-2.20867	-119.542	-85.9462	40.4737	-118.178	-83.432	69.4278	-149.855	-90.956	58.2144	
